<?xml version="1.0" encoding="UTF-8" standalone="no"?>
<svg
   width="650"
   height="650"
   viewBox="0 0 650 650"
   version="1.1"
   id="svg79"
   xmlns="http://www.w3.org/2000/svg">
  <defs
     id="defs83" />

  <g
     id="Group_4"
     transform="translate(0,-4.3021589)">
    <g
       id="Group_2"
       transform="matrix(1.5268841,0,0,1.5268841,86.32255,6.9563386)" />
    <g
       id="Group_3"
       transform="matrix(15.058781,0,0,15.058781,1.4272089,75.661605)">
      <path
         d="M 33.6571,4.97913 C 30.4764,1.7804 26.148,-0.0125438 21.6371,1.32832e-4 v 0 C 17.1262,-0.0125438 12.7978,1.7804 9.6171,4.97913 6.41812,8.16004 4.62516,12.4889 4.6381,17.0001 c -0.00296,2.0856 0.37982,4.1537 1.129,6.1 -1.10389,1.0933 -2.15061,2.2428 -3.136,3.444 -0.60268,0.737 -1.15781,1.5115 -1.661995,2.319 -0.266414,0.424 -0.494644,0.8707 -0.682,1.335 -0.105824,0.2582 -0.185879,0.5261 -0.2390004,0.8 -0.0711528,0.3362 -0.0632794,0.6844 0.023,1.017 0.0213546,0.0827 0.0515274,0.1628 0.0900004,0.239 l 0.024,0.051 c 0.009035,0.0189 0.019049,0.0372 0.03,0.055 0.050766,0.0883 0.110049,0.1713 0.177,0.248 0.149179,0.171 0.333783,0.3075 0.541,0.4 0.316295,0.133 0.656975,0.198 0.999995,0.191 0.53311,-0.0167 1.06153,-0.1051 1.571,-0.263 0.92625,-0.2816 1.82901,-0.6354 2.7,-1.058 1.39224,-0.6784 2.749,-1.4274 4.065,-2.244 3.1178,2.8157 7.171,4.3718 11.372,4.366 v 0 c 4.5108,0.0123 8.8391,-1.7806 12.02,-4.979 3.1987,-3.1811 4.9916,-7.5098 4.979,-12.021 C 38.652,12.4883 36.8576,8.15938 33.6571,4.97913 Z M 6.1291,23.9731 c 0.72615,1.6152 1.70136,3.1063 2.89,4.419 -1.286,0.788 -2.451,1.44 -3.55,1.988 v 0 c -0.78148,0.4035 -1.59288,0.7462 -2.427,1.025 -0.37225,0.1261 -0.75901,0.2044 -1.151,0.233 -0.11677,0.0097 -0.23432,-0.0018 -0.347,-0.034 -0.023,-0.01 -0.035,-0.017 -0.037,-0.017 -0.00395,-0.0047 -0.00763,-0.0098 -0.011,-0.015 -0.02335,-0.1097 -0.02335,-0.2232 0,-0.333 0.02881,-0.1832 0.07571,-0.363 0.14,-0.537 0.14535,-0.3976 0.32121,-0.7834 0.526,-1.154 0.43201,-0.7862 0.91226,-1.545 1.438,-2.272 0.765,-1.09 1.576,-2.128 2.52801,-3.303 z m 9.592,1.981 c 1.752,-1.294 3.154,-2.377 4.41,-3.409 1.383,-1.122 2.808,-2.339 4.24,-3.624 l 0.181,-0.169 c 1.271,-1.188 2.585,-2.418 3.85,-3.656 0.1364,-0.1358 0.1451,-0.3537 0.02,-0.5 -0.1281,-0.1448 -0.3462,-0.1661 -0.5,-0.049 -1.393,1.077 -2.779,2.2 -4.119,3.28 l -0.218,0.176 c -1.249,0.99 -2.6,2.029 -4.372,3.366 l -0.16,0.119 c -1.4,1.038 -2.846,2.112 -4.3,3.122 -1.636,1.15 -2.995,2.065 -4.251,2.861 -2.67128,-2.8291 -4.15587,-6.575 -4.148,-10.466 -0.01051,-4.0556 1.60155,-7.94692 4.477,-10.80697 2.86,-2.87554 6.7514,-4.48762 10.807,-4.477 4.0555,-0.01089 7.9469,1.60082 10.807,4.476 2.8749,2.86034 4.4866,6.75157 4.476,10.80697 0.0107,4.0558 -1.6009,7.9474 -4.476,10.808 -2.8602,2.8752 -6.7515,4.4872 -10.807,4.477 -3.6099,0.0024 -7.1037,-1.2757 -9.86,-3.607 1.341,-0.883 2.666,-1.797 3.942,-2.728 z"
         id="Path_11"
         fill="#322965"
         stroke="none" />
      <path
         d="m 15.219,0.178462 c 0,0 -4.071,-0.65 -5.43,0.531 l -2.492,2.165998 -0.231,0.2 -0.117,0.1 c 0,0 -4.252,-0.282 -5.172,0.517 l -0.947,0.824 v 0 l -0.351,0.3 -0.379,0.33 -0.1,0.084 1.97,2.266 c -0.608,0.528 -0.172,2.025 0.974,3.34304 1.146,1.318 2.567,1.958 3.175,1.429 l 1.97,2.266 0.061,-0.053 0.766,-0.666 v 0 l 0.947,-0.824 c 0.92,-0.8 1.232,-5.04904 1.232,-5.04904 l 0.236,-0.205 0.192,-0.166 2.413,-2.1 c 1.356,-1.169 1.283,-5.292998 1.283,-5.292998 z M 2.964,6.64146 l 0.138,-0.12 z m 7.6,1.772 -0.134,0.116 z"
         transform="translate(27.778105,0.9576705)"
         id="Path_12"
         fill="#ed5735"
         stroke="none" />
    </g>
  </g>
</svg>
